<?xml version="1.0" encoding="UTF-8"?>
<svg id="Layer_1" data-name="Layer 1" xmlns="http://www.w3.org/2000/svg" viewBox="0 0 1300 497">
  <defs>
    <style>
      .cls-1 {
        font-family: NouvelleGrotesquerie-Regular, 'Nouvelle Grotesquerie';
        font-size: 124.12px;
      }
    </style>
  </defs>
  <g>
    <path d="M781.82,274.52h-97.25l.13-.2h-.13c-29.5,0-55.11-22.54-61.8-51.26l-35.6-153.52h116.4l-51.4,62.02h32.44l20.11,111.19.02.1.03-.18,20.11-111.12h32.41l-51.38-62.02h75.91s.57,204.98,0,204.98Z"/>
    <polygon points="586.93 232.29 586.93 69.57 436.35 69.57 384.68 274.22 471.59 274.22 510.31 106.66 510.25 274.22 586.93 274.22 586.93 232.29"/>
    <polygon points="698.73 253.99 698.7 254.16 698.68 254.06 698.73 253.99"/>
  </g>
  <text class="cls-1" transform="translate(44.5 398.18)"><tspan x="0" y="0">AMPEDUP</tspan></text>
</svg>